<svg width="2970" height="841" viewBox="0 0 2970 841" fill="none" xmlns="http://www.w3.org/2000/svg">
<rect width="2969.28" height="841" fill="#F4F4F4"/>
<path d="M222.797 454.256L228.734 448.143C232.218 444.555 235.621 441.036 238.973 437.571C246.416 429.876 253.605 422.444 260.861 415.096C273.836 401.945 286.828 388.847 299.809 375.759C326.634 348.714 353.416 321.713 379.919 294.38L379.919 294.38C389.035 284.979 393.459 274.924 394.625 264.521C395.807 253.966 393.69 242.492 388.768 230.41C379.517 207.728 361.389 196.485 336.352 194.748L222.797 454.256ZM222.797 454.256L228.752 460.352M222.797 454.256L228.752 460.352M228.752 460.352C236.368 468.149 243.864 475.798 251.27 483.356C266.839 499.242 282.013 514.725 297.081 530.339L297.085 530.343M228.752 460.352L297.085 530.343M297.085 530.343C303.011 536.476 308.939 542.592 314.863 548.703C338.511 573.101 362.069 597.406 385.012 622.297L385.014 622.298M297.085 530.343L385.014 622.298M385.014 622.298C391.463 629.291 396.837 642.894 397.633 658.499C398.42 673.918 394.646 689.636 384.896 701.094C363.827 725.834 333.816 732.725 308.51 719.102C302.331 715.766 296.422 710.6 291.008 704.806C274.178 686.773 257.283 668.419 240.365 650.04C221.338 629.37 202.281 608.667 183.251 588.351L183.25 588.349M385.014 622.298L183.25 588.349M183.25 588.349C169.996 574.21 156.277 560.305 142.653 546.497C134.538 538.273 126.457 530.082 118.528 521.896L118.527 521.896M183.25 588.349L118.527 521.896M118.527 521.896C87.2886 489.652 79.886 445.539 99.9048 412.234C107.15 400.182 117.259 389.702 128.021 378.545C129.863 376.635 131.725 374.705 133.594 372.745L133.595 372.744M118.527 521.896L133.595 372.744M133.595 372.744C157.028 348.158 180.604 323.694 204.199 299.209L205.634 297.719C229.703 272.742 253.789 247.743 277.727 222.605L277.729 222.602M133.595 372.744L277.729 222.602M277.729 222.602C294.993 204.459 312.874 193.127 336.349 194.748L277.729 222.602Z" fill="#2E9165" stroke="#227953" stroke-width="17.4989"/>
<path d="M222.797 374.661L228.734 368.547C232.218 364.959 235.621 361.441 238.973 357.976C246.415 350.282 253.604 342.85 260.858 335.502C260.859 335.502 260.86 335.501 260.861 335.5C273.836 322.349 286.828 309.251 299.809 296.163C326.635 269.118 353.416 242.117 379.919 214.784L379.919 214.784C389.035 205.383 393.459 195.328 394.625 184.925C395.807 174.37 393.69 162.897 388.768 150.815C379.517 128.132 361.389 116.889 336.351 115.152L222.797 374.661ZM222.797 374.661L228.752 380.756M222.797 374.661L228.752 380.756M228.752 380.756C236.368 388.554 243.864 396.203 251.271 403.76C266.84 419.646 282.014 435.13 297.081 450.743L297.085 450.747M228.752 380.756L297.085 450.747M297.085 450.747C303.01 456.88 308.938 462.996 314.861 469.106C338.51 493.504 362.069 517.81 385.012 542.701L385.014 542.703M297.085 450.747L385.014 542.703M385.014 542.703C391.463 549.696 396.837 563.299 397.633 578.903C398.42 594.322 394.646 610.04 384.896 621.498C363.827 646.238 333.816 653.129 308.51 639.506C302.331 636.17 296.422 631.005 291.008 625.21C274.178 607.177 257.283 588.824 240.365 570.444C221.338 549.774 202.281 529.071 183.251 508.755L183.25 508.753M385.014 542.703L183.25 508.753M183.25 508.753C169.996 494.614 156.277 480.709 142.653 466.902C134.538 458.677 126.457 450.486 118.528 442.301L118.527 442.3M183.25 508.753L118.527 442.3M118.527 442.3C87.2886 410.056 79.886 365.943 99.9048 332.639C107.15 320.587 117.259 310.106 128.021 298.949C129.863 297.039 131.725 295.11 133.594 293.149L133.595 293.148M118.527 442.3L133.595 293.148M133.595 293.148C157.027 268.564 180.601 244.1 204.195 219.617L205.634 218.123C229.703 193.147 253.789 168.147 277.727 143.009L277.729 143.007M133.595 293.148L277.729 143.007M277.729 143.007C294.993 124.863 312.874 113.531 336.349 115.152L277.729 143.007Z" fill="#12D27D" stroke="#227953" stroke-width="17.4989"/>
<path d="M678.189 368H624.742V113.527H676.594L805.824 281.846V113.527H859.272V368H807.42L678.189 200.08V368ZM1112.2 368H1079.9C1057.56 368 1045.6 356.034 1045.6 338.883V322.53C1037.62 356.832 1005.31 371.989 973.801 371.989C938.302 371.989 903.202 354.838 903.202 314.952C903.202 275.066 939.897 259.111 977.39 253.527L1045.6 243.955V234.781C1045.6 214.439 1022.06 210.052 1005.71 209.653C982.575 209.653 965.026 215.636 962.632 240.764L914.37 236.376C914.769 189.311 958.245 168.969 1004.11 168.969C1062.75 168.969 1095.05 191.305 1095.05 234.382V325.721L1112.2 326.12V368ZM1045.6 274.268L989.755 283.442C973.003 286.234 953.06 294.211 954.655 310.963C955.852 326.519 974.598 331.305 990.951 328.912C1016.08 327.316 1045.2 313.755 1045.6 285.037V274.268ZM1392.28 368H1321.29V171.362H1230.74V110.735H1482.82V171.362H1392.28V368ZM1459.64 165.379H1515.88C1532.63 165.379 1543.4 176.547 1543.4 192.901V197.687C1557.76 179.339 1577.3 164.183 1598.04 164.183H1641.92V227.202H1584.88C1553.37 227.202 1543.8 239.168 1543.8 269.88V368H1479.58V225.607H1459.64V165.379ZM1734.2 147.431L1671.18 131.875V79.6243H1734.2V147.431ZM1670.38 168.171H1707.88C1724.23 168.171 1734.6 178.542 1734.6 194.097V368H1670.38V168.171ZM1775.05 86.0061H1839.27V308.57H1875.96V369.197H1838.07C1797.79 369.197 1775.05 348.456 1775.05 310.963V86.0061ZM1975.39 368H1907.99V82.8152H1975.39V205.265C1992.54 167.374 2030.84 164.183 2036.82 164.183C2108.61 164.183 2116.99 216.832 2116.99 256.319V368H2049.58V266.291C2049.58 239.567 2040.01 224.012 2016.08 224.012C1986.96 224.012 1975.39 248.342 1975.39 268.285V368ZM2363.98 368.399H2320.9C2297.77 368.399 2280.61 356.832 2280.61 338.086V324.524C2273.44 360.422 2239.93 372.387 2210.02 372.387C2174.12 372.387 2142.61 354.04 2142.61 315.351C2142.61 275.863 2175.71 257.516 2217.2 251.932L2280.22 243.157V237.174C2280.22 222.416 2265.46 218.428 2253.09 218.029C2234.75 217.63 2219.99 220.821 2217.59 240.764L2151.78 235.579C2152.98 186.519 2196.46 164.581 2249.9 164.581C2330.07 164.581 2346.83 195.294 2346.83 237.174V312.558H2363.98V368.399ZM2280.22 279.054L2241.93 285.436C2225.57 288.228 2207.62 294.211 2210.42 307.373C2212.01 315.351 2219.59 318.94 2229.56 318.94C2233.95 318.94 2238.73 318.541 2243.52 316.946C2260.27 313.755 2279.42 302.188 2280.22 284.239V279.054ZM1025.64 708H976.183V666.12C967.408 692.444 939.887 712.387 908.776 712.387C852.935 712.786 811.853 669.311 811.853 611.875C811.853 555.636 850.941 508.969 907.978 508.969C937.095 508.969 961.824 524.126 974.986 554.439V425.208H1025.64V708ZM863.305 610.678C863.305 641.789 885.243 668.114 919.545 668.114C953.847 668.114 975.385 641.789 975.385 610.678C975.385 579.168 954.246 553.242 919.545 553.242C885.243 553.242 863.305 579.168 863.305 610.678ZM1063.07 611.476C1063.07 557.63 1101.76 508.969 1169.17 508.969C1236.97 508.969 1275.26 558.029 1275.26 611.476C1275.26 670.108 1228.99 711.989 1169.17 711.989C1109.74 711.989 1063.07 670.108 1063.07 611.476ZM1169.17 666.519C1203.87 666.519 1225.4 642.188 1225.4 610.678C1225.4 579.168 1203.87 554.439 1169.17 554.439C1134.46 554.439 1112.93 579.168 1112.93 610.678C1112.93 641.789 1134.86 666.519 1169.17 666.519ZM1546.5 708H1411.29V450.337H1546.5C1641.83 450.337 1689.29 512.16 1689.29 579.168C1689.29 646.576 1641.83 708 1546.5 708ZM1482.28 510.963V647.373H1545.7C1591.17 647.373 1617.5 622.644 1617.5 579.168C1617.5 536.091 1591.17 510.963 1545.7 510.963H1482.28ZM1930.51 619.453H1777.75C1781.74 644.182 1799.69 660.137 1825.22 660.137C1848.75 660.137 1864.3 649.368 1871.48 634.61L1928.52 646.576C1917.35 682.074 1883.85 712.387 1825.22 712.387C1762.2 712.387 1711.94 671.704 1711.94 606.69C1711.94 543.67 1760.2 504.183 1822.02 504.183C1883.05 504.183 1930.12 540.08 1930.51 603.1C1930.51 605.892 1930.51 616.661 1930.51 619.453ZM1781.34 581.96H1863.11C1857.92 564.41 1841.57 553.242 1822.02 553.242C1803.68 553.242 1788.92 564.012 1781.34 581.96ZM1996.71 708L1937.28 508.171H2005.09L2048.96 665.322L2102.81 508.171H2169.02L2102.41 708H1996.71Z" fill="#0F4C5C"/>
<path d="M2746.48 454.256L2740.54 448.143C2737.06 444.555 2733.66 441.037 2730.31 437.572C2722.86 429.878 2715.67 422.446 2708.42 415.098C2708.42 415.097 2708.42 415.097 2708.42 415.096C2695.44 401.945 2682.45 388.847 2669.47 375.759C2642.64 348.714 2615.86 321.713 2589.36 294.38L2589.36 294.38C2580.24 284.979 2575.82 274.924 2574.65 264.521C2573.47 253.966 2575.59 242.492 2580.51 230.41C2589.76 207.728 2607.89 196.485 2632.93 194.748L2746.48 454.256ZM2746.48 454.256L2740.53 460.352M2746.48 454.256L2740.53 460.352M2740.53 460.352C2732.91 468.149 2725.41 475.798 2718.01 483.356C2702.44 499.242 2687.26 514.725 2672.2 530.339L2672.19 530.343M2740.53 460.352L2672.19 530.343M2672.19 530.343C2666.27 536.476 2660.34 542.592 2654.42 548.703C2630.77 573.1 2607.21 597.406 2584.27 622.297L2584.26 622.298M2672.19 530.343L2584.26 622.298M2584.26 622.298C2577.81 629.291 2572.44 642.894 2571.64 658.499C2570.86 673.918 2574.63 689.636 2584.38 701.094C2605.45 725.832 2635.46 732.724 2660.76 719.105C2666.94 715.769 2672.85 710.602 2678.27 704.806C2695.1 686.773 2711.99 668.419 2728.91 650.04C2747.94 629.369 2767 608.667 2786.03 588.351L2786.03 588.349M2584.26 622.298L2786.03 588.349M2786.03 588.349C2799.28 574.209 2813 560.305 2826.62 546.497C2834.74 538.273 2842.82 530.082 2850.75 521.896L2850.75 521.896M2786.03 588.349L2850.75 521.896M2850.75 521.896C2881.99 489.652 2889.39 445.54 2869.37 412.235L2850.75 521.896ZM2835.68 372.744L2835.68 372.745C2837.55 374.705 2839.41 376.635 2841.26 378.545C2852.02 389.702 2862.13 400.182 2869.37 412.234L2835.68 372.744ZM2835.68 372.744C2812.25 348.157 2788.67 323.692 2765.08 299.207L2763.64 297.719C2739.57 272.742 2715.49 247.743 2691.55 222.605L2691.55 222.602M2835.68 372.744L2691.55 222.602M2691.55 222.602C2674.28 204.459 2656.4 193.127 2632.93 194.748L2691.55 222.602Z" fill="#2E9165" stroke="#227953" stroke-width="17.4989"/>
<path d="M2746.48 374.66L2740.54 368.547C2737.06 364.96 2733.66 361.442 2730.31 357.977C2722.86 350.282 2715.67 342.851 2708.42 335.502C2708.42 335.502 2708.42 335.501 2708.42 335.5C2695.44 322.349 2682.45 309.251 2669.47 296.163C2642.64 269.118 2615.86 242.117 2589.36 214.784L2589.36 214.784C2580.24 205.383 2575.82 195.328 2574.65 184.925C2573.47 174.369 2575.59 162.895 2580.51 150.812C2589.76 128.131 2607.89 116.889 2632.93 115.152L2746.48 374.66ZM2746.48 374.66L2740.53 380.756M2746.48 374.66L2740.53 380.756M2740.53 380.756C2732.91 388.554 2725.41 396.203 2718.01 403.761C2702.44 419.647 2687.26 435.13 2672.2 450.743L2672.19 450.747M2740.53 380.756L2672.19 450.747M2672.19 450.747C2666.27 456.879 2660.34 462.995 2654.42 469.106C2630.77 493.504 2607.21 517.81 2584.27 542.701L2584.26 542.702M2672.19 450.747L2584.26 542.702M2584.26 542.702C2577.81 549.695 2572.44 563.298 2571.64 578.903C2570.86 594.322 2574.63 610.04 2584.38 621.498C2605.45 646.238 2635.46 653.129 2660.77 639.506C2666.95 636.17 2672.85 631.005 2678.27 625.21C2695.1 607.177 2711.99 588.823 2728.91 570.444C2747.94 549.774 2767 529.071 2786.03 508.755L2786.03 508.753M2584.26 542.702L2786.03 508.753M2786.03 508.753C2799.28 494.614 2813 480.71 2826.62 466.902C2834.74 458.677 2842.82 450.486 2850.75 442.301L2850.75 442.3M2786.03 508.753L2850.75 442.3M2850.75 442.3C2881.99 410.056 2889.39 365.944 2869.37 332.639L2850.75 442.3ZM2835.68 293.148L2835.68 293.149C2837.55 295.11 2839.41 297.039 2841.26 298.949C2852.02 310.106 2862.13 320.587 2869.37 332.639L2835.68 293.148ZM2835.68 293.148C2812.25 268.562 2788.67 244.098 2765.08 219.613L2763.64 218.123C2739.57 193.147 2715.49 168.147 2691.55 143.009L2691.55 143.007M2835.68 293.148L2691.55 143.007M2691.55 143.007C2674.28 124.863 2656.4 113.531 2632.93 115.152L2691.55 143.007Z" fill="#12D27D" stroke="#227953" stroke-width="17.4989"/>
</svg>
